<svg id="visual" viewBox="0 0 540 960" width="540" height="960" xmlns="http://www.w3.org/2000/svg" xmlns:xlink="http://www.w3.org/1999/xlink" version="1.1"><path d="M0 729L12.8 743.2C25.7 757.3 51.3 785.7 77 799.8C102.7 814 128.3 814 154 802.8C179.7 791.7 205.3 769.3 231.2 771.2C257 773 283 799 308.8 796.2C334.7 793.3 360.3 761.7 386 749.5C411.7 737.3 437.3 744.7 463 758.5C488.7 772.3 514.3 792.7 527.2 802.8L540 813L540 961L527.2 961C514.3 961 488.7 961 463 961C437.3 961 411.7 961 386 961C360.3 961 334.7 961 308.8 961C283 961 257 961 231.2 961C205.3 961 179.7 961 154 961C128.3 961 102.7 961 77 961C51.3 961 25.7 961 12.8 961L0 961Z" fill="#f87272" stroke-linecap="round" stroke-linejoin="miter"></path></svg>