<svg id="visual" viewBox="0 0 540 960" width="540" height="960" xmlns="http://www.w3.org/2000/svg" xmlns:xlink="http://www.w3.org/1999/xlink" version="1.1"><rect x="0" y="0" width="540" height="960" fill="#faf7f5"></rect><defs><linearGradient id="grad1_0" x1="0%" y1="0%" x2="100%" y2="100%"><stop offset="30%" stop-color="#f87272" stop-opacity="1"></stop><stop offset="70%" stop-color="#f87272" stop-opacity="1"></stop></linearGradient></defs><defs><linearGradient id="grad1_1" x1="0%" y1="0%" x2="100%" y2="100%"><stop offset="30%" stop-color="#f87272" stop-opacity="1"></stop><stop offset="70%" stop-color="#fbbaa3" stop-opacity="1"></stop></linearGradient></defs><defs><linearGradient id="grad1_2" x1="0%" y1="0%" x2="100%" y2="100%"><stop offset="30%" stop-color="#faf7f5" stop-opacity="1"></stop><stop offset="70%" stop-color="#fbbaa3" stop-opacity="1"></stop></linearGradient></defs><defs><linearGradient id="grad2_0" x1="0%" y1="0%" x2="100%" y2="100%"><stop offset="30%" stop-color="#f87272" stop-opacity="1"></stop><stop offset="70%" stop-color="#f87272" stop-opacity="1"></stop></linearGradient></defs><defs><linearGradient id="grad2_1" x1="0%" y1="0%" x2="100%" y2="100%"><stop offset="30%" stop-color="#fbbaa3" stop-opacity="1"></stop><stop offset="70%" stop-color="#f87272" stop-opacity="1"></stop></linearGradient></defs><defs><linearGradient id="grad2_2" x1="0%" y1="0%" x2="100%" y2="100%"><stop offset="30%" stop-color="#fbbaa3" stop-opacity="1"></stop><stop offset="70%" stop-color="#faf7f5" stop-opacity="1"></stop></linearGradient></defs><g transform="translate(540, 0)"><path d="M0 378C-66.6 368.4 -133.2 358.8 -189 327.4C-244.8 295.9 -289.9 242.7 -319.6 184.5C-349.3 126.3 -363.6 63.2 -378 0L0 0Z" fill="#fbd9c9"></path><path d="M0 252C-44.4 245.6 -88.8 239.2 -126 218.2C-163.2 197.3 -193.2 161.8 -213 123C-232.8 84.2 -242.4 42.1 -252 0L0 0Z" fill="#fb9886"></path><path d="M0 126C-22.2 122.8 -44.4 119.6 -63 109.1C-81.6 98.6 -96.6 80.9 -106.5 61.5C-116.4 42.1 -121.2 21.1 -126 0L0 0Z" fill="#f87272"></path></g><g transform="translate(0, 960)"><path d="M0 -378C60 -358.1 119.9 -338.2 178.5 -309.2C237.1 -280.2 294.3 -242 327.4 -189C360.4 -136 369.2 -68 378 0L0 0Z" fill="#fbd9c9"></path><path d="M0 -252C40 -238.7 79.9 -225.5 119 -206.1C158.1 -186.8 196.2 -161.4 218.2 -126C240.3 -90.6 246.1 -45.3 252 0L0 0Z" fill="#fb9886"></path><path d="M0 -126C20 -119.4 40 -112.7 59.5 -103.1C79 -93.4 98.1 -80.7 109.1 -63C120.1 -45.3 123.1 -22.7 126 0L0 0Z" fill="#f87272"></path></g></svg>