<svg id="visual" viewBox="0 0 540 960" width="540" height="960" xmlns="http://www.w3.org/2000/svg" xmlns:xlink="http://www.w3.org/1999/xlink" version="1.1"><rect x="0" y="0" width="540" height="960" fill="#e7e2df"></rect><path d="M0 600L12.8 612.7C25.7 625.3 51.3 650.7 77 667.5C102.7 684.3 128.3 692.7 154 697.7C179.7 702.7 205.3 704.3 231.2 696.7C257 689 283 672 308.8 656.7C334.7 641.3 360.3 627.7 386 632.2C411.7 636.7 437.3 659.3 463 659.3C488.7 659.3 514.3 636.7 527.2 625.3L540 614L540 961L527.2 961C514.3 961 488.7 961 463 961C437.3 961 411.7 961 386 961C360.3 961 334.7 961 308.8 961C283 961 257 961 231.2 961C205.3 961 179.7 961 154 961C128.3 961 102.7 961 77 961C51.3 961 25.7 961 12.8 961L0 961Z" fill="#fbbd23"></path><path d="M0 720L12.8 712.7C25.7 705.3 51.3 690.7 77 694.5C102.7 698.3 128.3 720.7 154 713.2C179.7 705.7 205.3 668.3 231.2 654C257 639.7 283 648.3 308.8 662.2C334.7 676 360.3 695 386 695.5C411.7 696 437.3 678 463 671.8C488.7 665.7 514.3 671.3 527.2 674.2L540 677L540 961L527.2 961C514.3 961 488.7 961 463 961C437.3 961 411.7 961 386 961C360.3 961 334.7 961 308.8 961C283 961 257 961 231.2 961C205.3 961 179.7 961 154 961C128.3 961 102.7 961 77 961C51.3 961 25.7 961 12.8 961L0 961Z" fill="#ff9b2c"></path><path d="M0 734L12.8 740.3C25.7 746.7 51.3 759.3 77 754.3C102.7 749.3 128.3 726.7 154 727.3C179.7 728 205.3 752 231.2 751.2C257 750.3 283 724.7 308.8 713.8C334.7 703 360.3 707 386 711.5C411.7 716 437.3 721 463 726.3C488.7 731.7 514.3 737.3 527.2 740.2L540 743L540 961L527.2 961C514.3 961 488.7 961 463 961C437.3 961 411.7 961 386 961C360.3 961 334.7 961 308.8 961C283 961 257 961 231.2 961C205.3 961 179.7 961 154 961C128.3 961 102.7 961 77 961C51.3 961 25.7 961 12.8 961L0 961Z" fill="#fd793c"></path><path d="M0 792L12.8 797.2C25.7 802.3 51.3 812.7 77 814.7C102.7 816.7 128.3 810.3 154 804.2C179.7 798 205.3 792 231.2 797.2C257 802.3 283 818.7 308.8 815.7C334.7 812.7 360.3 790.3 386 781.5C411.7 772.7 437.3 777.3 463 783.2C488.7 789 514.3 796 527.2 799.5L540 803L540 961L527.2 961C514.3 961 488.7 961 463 961C437.3 961 411.7 961 386 961C360.3 961 334.7 961 308.8 961C283 961 257 961 231.2 961C205.3 961 179.7 961 154 961C128.3 961 102.7 961 77 961C51.3 961 25.7 961 12.8 961L0 961Z" fill="#f3594c"></path><path d="M0 849L12.8 851.7C25.7 854.3 51.3 859.7 77 861.5C102.7 863.3 128.3 861.7 154 856.5C179.7 851.3 205.3 842.7 231.2 832.2C257 821.7 283 809.3 308.8 814.2C334.7 819 360.3 841 386 844.3C411.7 847.7 437.3 832.3 463 821.5C488.7 810.7 514.3 804.3 527.2 801.2L540 798L540 961L527.2 961C514.3 961 488.7 961 463 961C437.3 961 411.7 961 386 961C360.3 961 334.7 961 308.8 961C283 961 257 961 231.2 961C205.3 961 179.7 961 154 961C128.3 961 102.7 961 77 961C51.3 961 25.7 961 12.8 961L0 961Z" fill="#e03b5b"></path><path d="M0 923L12.8 915C25.7 907 51.3 891 77 890.7C102.7 890.3 128.3 905.7 154 903C179.7 900.3 205.3 879.7 231.2 873.2C257 866.7 283 874.3 308.8 880.7C334.7 887 360.3 892 386 895.3C411.7 898.7 437.3 900.3 463 903.3C488.7 906.3 514.3 910.7 527.2 912.8L540 915L540 961L527.2 961C514.3 961 488.7 961 463 961C437.3 961 411.7 961 386 961C360.3 961 334.7 961 308.8 961C283 961 257 961 231.2 961C205.3 961 179.7 961 154 961C128.3 961 102.7 961 77 961C51.3 961 25.7 961 12.8 961L0 961Z" fill="#c62368"></path></svg>