<svg id="visual" viewBox="0 0 900 600" width="900" height="600" xmlns="http://www.w3.org/2000/svg" xmlns:xlink="http://www.w3.org/1999/xlink" version="1.1"><path d="M0 49L13.7 51C27.3 53 54.7 57 82 56C109.3 55 136.7 49 163.8 53C191 57 218 71 245.2 70C272.3 69 299.7 53 327 51C354.3 49 381.7 61 409 67C436.3 73 463.7 73 491 67C518.3 61 545.7 49 573 46C600.3 43 627.7 49 654.8 49C682 49 709 43 736.2 50C763.3 57 790.7 77 818 77C845.3 77 872.7 57 886.3 47L900 37L900 0L886.3 0C872.7 0 845.3 0 818 0C790.7 0 763.3 0 736.2 0C709 0 682 0 654.8 0C627.7 0 600.3 0 573 0C545.7 0 518.3 0 491 0C463.7 0 436.3 0 409 0C381.7 0 354.3 0 327 0C299.7 0 272.3 0 245.2 0C218 0 191 0 163.8 0C136.7 0 109.3 0 82 0C54.7 0 27.3 0 13.7 0L0 0Z" fill="#6198ff"></path><path d="M0 187L13.7 194C27.3 201 54.7 215 82 215C109.3 215 136.7 201 163.8 187C191 173 218 159 245.2 162C272.3 165 299.7 185 327 189C354.3 193 381.7 181 409 184C436.3 187 463.7 205 491 197C518.3 189 545.7 155 573 145C600.3 135 627.7 149 654.8 156C682 163 709 163 736.2 164C763.3 165 790.7 167 818 162C845.3 157 872.7 145 886.3 139L900 133L900 35L886.3 45C872.7 55 845.3 75 818 75C790.7 75 763.3 55 736.2 48C709 41 682 47 654.8 47C627.7 47 600.3 41 573 44C545.7 47 518.3 59 491 65C463.7 71 436.3 71 409 65C381.7 59 354.3 47 327 49C299.7 51 272.3 67 245.2 68C218 69 191 55 163.8 51C136.7 47 109.3 53 82 54C54.7 55 27.3 51 13.7 49L0 47Z" fill="#3c80ff"></path><path d="M0 361L13.7 357C27.3 353 54.7 345 82 347C109.3 349 136.7 361 163.8 351C191 341 218 309 245.2 305C272.3 301 299.7 325 327 328C354.3 331 381.7 313 409 313C436.3 313 463.7 331 491 339C518.3 347 545.7 345 573 332C600.3 319 627.7 295 654.8 309C682 323 709 375 736.2 392C763.3 409 790.7 391 818 388C845.3 385 872.7 397 886.3 403L900 409L900 131L886.3 137C872.7 143 845.3 155 818 160C790.7 165 763.3 163 736.2 162C709 161 682 161 654.8 154C627.7 147 600.3 133 573 143C545.7 153 518.3 187 491 195C463.7 203 436.3 185 409 182C381.7 179 354.3 191 327 187C299.7 183 272.3 163 245.2 160C218 157 191 171 163.8 185C136.7 199 109.3 213 82 213C54.7 213 27.3 199 13.7 192L0 185Z" fill="#0066ff"></path><path d="M0 439L13.7 431C27.3 423 54.7 407 82 411C109.3 415 136.7 439 163.8 428C191 417 218 371 245.2 360C272.3 349 299.7 373 327 387C354.3 401 381.7 405 409 415C436.3 425 463.7 441 491 448C518.3 455 545.7 453 573 440C600.3 427 627.7 403 654.8 413C682 423 709 467 736.2 486C763.3 505 790.7 499 818 497C845.3 495 872.7 497 886.3 498L900 499L900 407L886.3 401C872.7 395 845.3 383 818 386C790.7 389 763.3 407 736.2 390C709 373 682 321 654.8 307C627.7 293 600.3 317 573 330C545.7 343 518.3 345 491 337C463.7 329 436.3 311 409 311C381.7 311 354.3 329 327 326C299.7 323 272.3 299 245.2 303C218 307 191 339 163.8 349C136.7 359 109.3 347 82 345C54.7 343 27.3 351 13.7 355L0 359Z" fill="#0059dd"></path><path d="M0 601L13.7 601C27.3 601 54.7 601 82 601C109.3 601 136.7 601 163.8 601C191 601 218 601 245.2 601C272.3 601 299.7 601 327 601C354.3 601 381.7 601 409 601C436.3 601 463.7 601 491 601C518.3 601 545.7 601 573 601C600.3 601 627.7 601 654.8 601C682 601 709 601 736.2 601C763.3 601 790.7 601 818 601C845.3 601 872.7 601 886.3 601L900 601L900 497L886.3 496C872.7 495 845.3 493 818 495C790.7 497 763.3 503 736.2 484C709 465 682 421 654.8 411C627.7 401 600.3 425 573 438C545.7 451 518.3 453 491 446C463.7 439 436.3 423 409 413C381.7 403 354.3 399 327 385C299.7 371 272.3 347 245.2 358C218 369 191 415 163.8 426C136.7 437 109.3 413 82 409C54.7 405 27.3 421 13.7 429L0 437Z" fill="#004cbb"></path></svg>